<svg xmlns="http://www.w3.org/2000/svg" viewBox="0 0 64 64" fill="none">
  <defs>
    <linearGradient id="eyeG" x1="0" y1="0" x2="0" y2="1">
      <stop offset="0%" stop-color="#4ADE80"/>
      <stop offset="100%" stop-color="#15803D"/>
    </linearGradient>
  </defs>
  <g transform="translate(32 36)">
    <path d="M-18 -22 L-24 -46 L-6 -28 Z" fill="#0f0f0f"/>
    <path d="M-16 -24 L-20 -40 L-8 -27 Z" fill="#1a1a1a"/>
    <path d="M16 -24 L24 -48 L6 -30 Z" fill="#0f0f0f"/>
    <path d="M14 -26 L20 -42 L8 -28 Z" fill="#1a1a1a"/>
    <ellipse cx="0" cy="-10" rx="22" ry="20" fill="#0f0f0f"/>
    <ellipse cx="-8" cy="-12" rx="7.2" ry="8" fill="url(#eyeG)"/>
    <ellipse cx="-8" cy="-12" rx="3.2" ry="4.6" fill="#000"/>
    <circle cx="-10" cy="-14.5" r="1.6" fill="#fff" opacity="0.85"/>
    <ellipse cx="9" cy="-13" rx="7.2" ry="8" fill="url(#eyeG)"/>
    <ellipse cx="9" cy="-13" rx="3.2" ry="4.6" fill="#000"/>
    <circle cx="7" cy="-15.5" r="1.6" fill="#fff" opacity="0.85"/>
    <path d="M0 -4 L-1.4 -1.6 L1.4 -1.6 Z" fill="#2a2a2a"/>
    <path d="M-10 -1 Q0 10 11 -2" stroke="#fff" stroke-width="2.2" stroke-linecap="round" fill="none"/>
    <line x1="-16" y1="-6" x2="-30" y2="-9" stroke="#444" stroke-width="1.2" stroke-linecap="round"/>
    <line x1="-16" y1="-3" x2="-31" y2="-2" stroke="#444" stroke-width="1.2" stroke-linecap="round"/>
    <line x1="16" y1="-7" x2="30" y2="-11" stroke="#444" stroke-width="1.2" stroke-linecap="round"/>
    <line x1="16" y1="-4" x2="31" y2="-4" stroke="#444" stroke-width="1.2" stroke-linecap="round"/>
  </g>
</svg>
